# xmcd
#
# Track frame offsets:
#	150
#	19229
#	37239
#	61125
#	81869
#	100551
#	115348
#	132658
#	153924
#	182180
#	196954
#	219182
#	247679
#	268576
#	290288
#	301782
#	316928
#
# Disc length: 4417 seconds
#
# Revision: 1
# Processed by: cddbd v1.5.2PL0 Copyright (c) Steve Scherf et al.
# Submitted via: audiograbber 1.83.01
#
DISCID=e3113f11
DTITLE=Алла Пугачёва -  Звездная серия (диск 3)
DYEAR=2002
DGENRE=Pop
TTITLE0=Женщина, которая поет
TTITLE1=Близкие люди
TTITLE2=Когда меня ты позовешь
TTITLE3=Ты на свете есть
TTITLE4=Не отрекаются любя
TTITLE5=Любовь одна виновата
TTITLE6=Прости, поверь
TTITLE7=Молодой человек, пригласите танцевать
TTITLE8=Расскажите птицы
TTITLE9=Между небом и землей
TTITLE10=Улетай, туча
TTITLE11=Сирена
TTITLE12=Старинные часы
TTITLE13=Куда уходит детство
TTITLE14=Куда уехал цирк
TTITLE15=Очень хорошо
TTITLE16=А знаешь, все еще будет
EXTD=
EXTT0=
EXTT1=
EXTT2=
EXTT3=
EXTT4=
EXTT5=
EXTT6=
EXTT7=
EXTT8=
EXTT9=
EXTT10=
EXTT11=
EXTT12=
EXTT13=
EXTT14=
EXTT15=
EXTT16=
PLAYORDER=
